<svg width="238" height="36" viewBox="0 0 238 36" xmlns="http://www.w3.org/2000/svg">
<path d="M237.506 8.20312V29.1406H231.998V25.3711H231.881C230.787 28.1445 228.697 29.5312 225.611 29.5312C223.32 29.5312 221.49 28.8346 220.123 27.4414C218.756 26.0352 218.072 24.1211 218.072 21.6992V8.20312H223.775V20.5078C223.775 21.901 224.107 22.9622 224.771 23.6914C225.449 24.4206 226.419 24.7852 227.682 24.7852C228.945 24.7852 229.947 24.3685 230.689 23.5352C231.432 22.7018 231.803 21.5885 231.803 20.1953V8.20312H237.506Z" />
<path d="M203.6 29.1406V8.20312H209.107V11.9727H209.225C209.589 10.6445 210.201 9.62891 211.061 8.92578C211.92 8.22266 212.968 7.87109 214.205 7.87109C214.804 7.87109 215.344 7.94271 215.826 8.08594V13.1055C215.292 12.8841 214.602 12.7734 213.756 12.7734C212.35 12.7734 211.256 13.1836 210.475 14.0039C209.693 14.8242 209.303 15.9701 209.303 17.4414V29.1406H203.6Z" />
<path d="M198.404 28.457C197.792 29.069 197.05 29.375 196.178 29.375C195.305 29.375 194.563 29.069 193.951 28.457C193.339 27.8451 193.033 27.1029 193.033 26.2305C193.033 25.3581 193.339 24.6159 193.951 24.0039C194.563 23.3919 195.305 23.0859 196.178 23.0859C197.05 23.0859 197.792 23.3919 198.404 24.0039C199.016 24.6159 199.322 25.3581 199.322 26.2305C199.322 27.1029 199.016 27.8451 198.404 28.457Z" />
<path d="M187.311 26.6992C185.449 28.6263 182.923 29.5898 179.732 29.5898C176.542 29.5898 174.016 28.6198 172.154 26.6797C170.292 24.7396 169.361 22.0638 169.361 18.6523C169.361 15.2799 170.299 12.6237 172.174 10.6836C174.062 8.73047 176.581 7.75391 179.732 7.75391C182.896 7.75391 185.416 8.73047 187.291 10.6836C189.166 12.6237 190.104 15.2799 190.104 18.6523C190.104 22.0768 189.173 24.7591 187.311 26.6992ZM179.732 25.2344C181.139 25.2344 182.252 24.6615 183.072 23.5156C183.893 22.3698 184.303 20.7552 184.303 18.6719C184.303 16.6146 183.893 15.0065 183.072 13.8477C182.252 12.6888 181.139 12.1094 179.732 12.1094C178.326 12.1094 177.206 12.6888 176.373 13.8477C175.553 15.0065 175.143 16.6146 175.143 18.6719C175.143 20.7552 175.553 22.3698 176.373 23.5156C177.193 24.6615 178.313 25.2344 179.732 25.2344Z" />
<path d="M157.74 3.37891H163.443V8.20312H167.311V12.5H163.443V22.5195C163.443 24.0951 164.264 24.8828 165.904 24.8828C166.438 24.8828 166.9 24.8503 167.291 24.7852V28.9844C166.627 29.1406 165.722 29.2188 164.576 29.2188C162.115 29.2188 160.357 28.776 159.303 27.8906C158.261 27.0052 157.74 25.5404 157.74 23.4961V12.5H154.791V8.20312H157.74V3.37891Z" />
<path d="M135.24 14.3555C135.24 12.3633 136.041 10.7682 137.643 9.57031C139.244 8.35938 141.386 7.75391 144.068 7.75391C146.686 7.75391 148.788 8.36589 150.377 9.58984C151.965 10.8138 152.779 12.4414 152.818 14.4727H147.564C147.499 13.6263 147.148 12.9622 146.51 12.4805C145.885 11.9987 145.045 11.7578 143.99 11.7578C143.001 11.7578 142.206 11.9661 141.607 12.3828C141.021 12.7865 140.729 13.3268 140.729 14.0039C140.729 15.0195 141.64 15.7422 143.463 16.1719L147.467 17.0312C149.563 17.5 151.067 18.1836 151.979 19.082C152.903 19.9674 153.365 21.1914 153.365 22.7539C153.365 24.8112 152.506 26.4648 150.787 27.7148C149.068 28.9648 146.822 29.5898 144.049 29.5898C141.288 29.5898 139.081 28.9779 137.428 27.7539C135.774 26.5299 134.869 24.8828 134.713 22.8125H140.279C140.423 23.6979 140.826 24.3815 141.49 24.8633C142.167 25.3451 143.072 25.5859 144.205 25.5859C145.286 25.5859 146.132 25.3906 146.744 25C147.369 24.5964 147.682 24.0495 147.682 23.3594C147.682 22.8255 147.486 22.4023 147.096 22.0898C146.705 21.7643 146.041 21.4909 145.104 21.2695L141.236 20.4102C137.239 19.4987 135.24 17.4805 135.24 14.3555Z" />
<path d="M129.85 26.6992C127.988 28.6263 125.462 29.5898 122.271 29.5898C119.081 29.5898 116.555 28.6198 114.693 26.6797C112.831 24.7396 111.9 22.0638 111.9 18.6523C111.9 15.2799 112.838 12.6237 114.713 10.6836C116.601 8.73047 119.12 7.75391 122.271 7.75391C125.436 7.75391 127.955 8.73047 129.83 10.6836C131.705 12.6237 132.643 15.2799 132.643 18.6523C132.643 22.0768 131.712 24.7591 129.85 26.6992ZM122.271 25.2344C123.678 25.2344 124.791 24.6615 125.611 23.5156C126.432 22.3698 126.842 20.7552 126.842 18.6719C126.842 16.6146 126.432 15.0065 125.611 13.8477C124.791 12.6888 123.678 12.1094 122.271 12.1094C120.865 12.1094 119.745 12.6888 118.912 13.8477C118.092 15.0065 117.682 16.6146 117.682 18.6719C117.682 20.7552 118.092 22.3698 118.912 23.5156C119.732 24.6615 120.852 25.2344 122.271 25.2344Z" />
<path d="M98.7949 29.1406V8.20312H104.303V11.9727H104.42C104.785 10.6445 105.396 9.62891 106.256 8.92578C107.115 8.22266 108.163 7.87109 109.4 7.87109C109.999 7.87109 110.54 7.94271 111.021 8.08594V13.1055C110.488 12.8841 109.798 12.7734 108.951 12.7734C107.545 12.7734 106.451 13.1836 105.67 14.0039C104.889 14.8242 104.498 15.9701 104.498 17.4414V29.1406H98.7949Z" />
<path d="M87.2715 7.87109C89.9277 7.87109 92.0176 8.82812 93.541 10.7422C95.0775 12.6562 95.8457 15.2995 95.8457 18.6719C95.8457 22.0312 95.0905 24.6745 93.5801 26.6016C92.0697 28.5156 89.9993 29.4727 87.3691 29.4727C85.8717 29.4727 84.5501 29.1341 83.4043 28.457C82.2715 27.7669 81.4251 26.8229 80.8652 25.625H80.748V35.9766H75.0449V8.20312H80.6699V11.8555H80.7871C81.36 10.6055 82.2064 9.62891 83.3262 8.92578C84.459 8.22266 85.7741 7.87109 87.2715 7.87109ZM85.3574 24.8828C86.7767 24.8828 87.903 24.3229 88.7363 23.2031C89.5827 22.0833 90.0059 20.5729 90.0059 18.6719C90.0059 16.7708 89.5827 15.2604 88.7363 14.1406C87.903 13.0078 86.7767 12.4414 85.3574 12.4414C83.9642 12.4414 82.8444 13.0143 81.998 14.1602C81.1517 15.293 80.7285 16.7969 80.7285 18.6719C80.7285 20.5599 81.1452 22.0703 81.9785 23.2031C82.8249 24.3229 83.9512 24.8828 85.3574 24.8828Z" />
<path d="M59.4395 16.6016L66.5488 8.20312H73.0137L65.0254 17.1875L73.4043 29.1406H66.8418L60.8457 20.625L59.3613 22.2266V29.1406H53.6582V0.957031H59.3613V16.6016H59.4395Z" />
<path d="M39.6934 25.3516C40.9564 25.3516 42.0241 24.987 42.8965 24.2578C43.7819 23.5156 44.2246 22.5846 44.2246 21.4648V19.9414L39.8105 20.2148C38.7428 20.293 37.916 20.5599 37.3301 21.0156C36.7572 21.4714 36.4707 22.0703 36.4707 22.8125C36.4707 23.5938 36.7637 24.2122 37.3496 24.668C37.9355 25.1237 38.7168 25.3516 39.6934 25.3516ZM37.8184 29.4727C35.8001 29.4727 34.127 28.8802 32.7988 27.6953C31.4707 26.5104 30.8066 24.987 30.8066 23.125C30.8066 21.224 31.5098 19.7331 32.916 18.6523C34.3223 17.5716 36.334 16.9531 38.9512 16.7969L44.2246 16.4844V15.0977C44.2246 14.1341 43.9056 13.3789 43.2676 12.832C42.6426 12.2852 41.7897 12.0117 40.709 12.0117C39.6673 12.0117 38.8145 12.2461 38.1504 12.7148C37.4993 13.1836 37.1022 13.8151 36.959 14.6094H31.7441C31.8483 12.5521 32.7272 10.8984 34.3809 9.64844C36.0345 8.38542 38.2285 7.75391 40.9629 7.75391C43.6452 7.75391 45.7936 8.39193 47.4082 9.66797C49.0228 10.944 49.8301 12.6367 49.8301 14.7461V29.1406H44.3223V25.9375H44.2051C43.6322 27.0312 42.7598 27.8971 41.5879 28.5352C40.416 29.1602 39.1595 29.4727 37.8184 29.4727Z" />
<path d="M16.1191 16.6016L23.2285 8.20312H29.6934L21.7051 17.1875L30.084 29.1406H23.5215L17.5254 20.625L16.041 22.2266V29.1406H10.3379V0.957031H16.041V16.6016H16.1191Z" />
<path d="M0.689453 29.1406V8.20312H6.39258V29.1406H0.689453ZM5.70898 5.03906C5.12305 5.61198 4.40039 5.89844 3.54102 5.89844C2.68164 5.89844 1.95898 5.61198 1.37305 5.03906C0.787109 4.46615 0.494141 3.76953 0.494141 2.94922C0.494141 2.11589 0.787109 1.41927 1.37305 0.859375C1.95898 0.286458 2.68164 0 3.54102 0C4.40039 0 5.12305 0.286458 5.70898 0.859375C6.29492 1.41927 6.58789 2.11589 6.58789 2.94922C6.58789 3.76953 6.29492 4.46615 5.70898 5.03906Z" />
</svg>
